# Blender v2.91.0 OBJ File: ''
# www.blender.org
mtllib wirebox.mtl
o Cube_Cube.001
v -0.669727 1.000000 1.000000
v -0.669727 -1.000000 -1.000000
v -0.669727 -1.000000 1.000000
v -0.669727 1.000000 -1.000000
v 0.669727 -0.909295 -0.909296
v 0.669727 0.909296 -0.909295
v 0.669727 -1.000000 1.000000
v 0.669727 0.909295 0.909296
v 0.669727 -1.000000 -1.000000
v 0.669727 1.000000 -1.000000
v 0.669727 -0.909296 0.909295
v 0.669727 1.000000 1.000000
v 0.580735 0.909296 -0.909295
v 0.580735 -0.909296 0.909295
v 0.580735 -0.909295 -0.909296
v 0.580735 0.909295 0.909296
v 0.669727 1.000000 -0.850220
v 0.669727 -1.000000 -0.850220
v 0.669727 0.909296 -0.773101
v 0.669727 -0.909295 -0.773102
v 0.580735 0.909296 -0.773101
v 0.580735 -0.909295 -0.773102
v 0.669727 -0.871936 -1.000000
v 0.669727 -0.871937 1.000000
v 0.669727 -0.792848 -0.909296
v 0.669727 -0.792848 0.909295
v 0.580735 -0.792848 -0.909296
v 0.580735 -0.792848 0.909295
v 0.580735 -0.792848 -0.773102
v 0.632578 -0.803618 -0.885702
v 0.632578 0.898526 -0.885701
v 0.632578 -0.920066 -0.749508
v 0.632578 -0.920066 0.932889
v 0.632578 0.898526 -0.749507
v 0.632578 -0.920066 -0.885702
v 0.632578 -0.803618 -0.749508
v 0.632578 -0.803618 0.932890
vt 0.405304 0.543526
vt 0.377118 0.524313
vt 0.405304 0.524313
vt 0.401842 0.558192
vt 0.372586 0.503300
vt 0.401842 0.503300
vt 0.371105 0.558674
vt 0.371105 0.507766
vt 0.371105 0.507766
vt 0.401103 0.547014
vt 0.372961 0.545212
vt 0.372961 0.518872
vt 0.373505 0.541221
vt 0.393966 0.520759
vt 0.393966 0.541221
vt 0.393905 0.520759
vt 0.373443 0.522291
vt 0.373443 0.520759
vt 0.377118 0.543526
vt 0.372997 0.506343
vt 0.316715 0.558674
vt 0.367032 0.558674
vt 0.367032 0.558674
vt 0.401103 0.518872
vt 0.373505 0.539689
vt 0.393905 0.541221
vt 0.373443 0.541221
vt 0.371105 0.504283
vt 0.314002 0.505400
vt 0.316715 0.507766
vt 0.369338 0.561387
vt 0.316715 0.504283
vt 0.369338 0.501570
vt 0.367032 0.504283
vt 0.367032 0.507766
vt 0.316715 0.558674
vt 0.316715 0.507766
vt 0.316715 0.504283
vt 0.367032 0.504283
vt 0.367032 0.507766
vt 0.373818 0.501570
vt 0.314002 0.561387
vt 0.371105 0.558674
vt 0.371105 0.558674
vt 0.371105 0.504283
vt 0.371105 0.507766
vt 0.371105 0.504283
vt 0.314002 0.501570
vt 0.373818 0.561387
vt 0.367032 0.558674
vt 0.367032 0.504283
vt 0.316715 0.507766
vt 0.316715 0.504283
vt 0.372961 0.547014
vt 0.372586 0.558192
vt 0.373505 0.520759
vn -1.0000 0.0000 0.0000
vn 0.0000 0.0000 -1.0000
vn 0.0000 -0.7071 0.7071
vn 0.0000 -0.0000 1.0000
vn -0.0000 -1.0000 -0.0000
vn -0.0000 1.0000 0.0000
vn 0.0000 -0.7071 -0.7071
vn 1.0000 -0.0000 0.0000
vn 0.4821 0.5047 0.7161
vn 0.5173 0.7187 0.4646
vn 0.0000 0.7071 -0.7071
vn 0.0000 0.7071 0.7071
vn 0.8906 0.3819 0.2469
vn 0.4099 0.7050 -0.5788
vn 0.4310 0.6018 -0.6723
vn 0.2446 -0.5586 -0.7925
vn 0.4142 0.0000 -0.9102
vn 0.0724 -0.8376 -0.5415
vn -0.4099 -0.7050 0.5788
vn -0.2034 -0.9791 -0.0000
vn -0.4310 -0.6018 0.6723
usemtl material0
s 1
f 1/1/1 2/2/1 3/3/1
f 4/4/2 9/5/2 2/6/2
f 6/7/3 27/8/4 25/9/4
f 3/10/4 24/11/4 12/12/4
f 9/13/5 3/14/5 2/15/5
f 4/16/6 17/17/6 10/18/6
f 1/1/1 4/19/1 2/2/1
f 4/4/2 23/20/2 9/5/2
f 8/21/7 21/22/5 19/23/5
f 12/12/4 1/24/4 3/10/4
f 18/25/5 3/14/5 9/13/5
f 4/16/6 1/26/6 12/27/6
f 5/28/8 23/20/8 25/9/8
f 8/21/8 24/29/8 26/30/8
f 6/7/8 17/31/8 19/23/8
f 11/32/8 18/33/8 20/34/8
f 29/35/9 16/36/8 28/37/10
f 20/34/6 14/38/11 11/32/11
f 5/28/12 22/39/6 20/34/6
f 11/32/11 28/37/2 26/30/2
f 28/37/10 36/40/13 29/35/9
f 5/28/8 18/33/8 9/41/8
f 8/21/8 17/31/8 12/42/8
f 19/23/5 13/43/3 6/7/3
f 21/22/10 31/44/14 13/43/15
f 26/30/2 16/36/7 8/21/7
f 15/45/16 30/46/17 35/47/18
f 11/32/8 24/29/8 7/48/8
f 6/7/8 23/20/8 10/49/8
f 25/9/4 15/45/12 5/28/12
f 30/46/8 34/50/9 36/40/13
f 35/47/8 36/40/13 32/51/8
f 32/51/8 37/52/9 33/53/8
f 14/38/19 37/52/9 28/37/10
f 27/8/17 31/44/14 30/46/17
f 22/39/20 35/47/18 32/51/20
f 14/38/19 32/51/20 33/53/21
f 29/35/9 34/50/9 21/22/10
f 6/7/3 13/43/3 27/8/4
f 3/10/4 7/54/4 24/11/4
f 4/16/6 12/27/6 17/17/6
f 4/4/2 10/55/2 23/20/2
f 8/21/7 16/36/7 21/22/5
f 18/25/5 7/56/5 3/14/5
f 5/28/8 9/41/8 23/20/8
f 8/21/8 12/42/8 24/29/8
f 6/7/8 10/49/8 17/31/8
f 11/32/8 7/48/8 18/33/8
f 29/35/9 21/22/10 16/36/8
f 20/34/6 22/39/6 14/38/11
f 5/28/12 15/45/12 22/39/6
f 11/32/11 14/38/11 28/37/2
f 28/37/10 37/52/9 36/40/13
f 5/28/8 20/34/8 18/33/8
f 8/21/8 19/23/8 17/31/8
f 19/23/5 21/22/5 13/43/3
f 21/22/10 34/50/9 31/44/14
f 26/30/2 28/37/2 16/36/7
f 15/45/16 27/8/17 30/46/17
f 11/32/8 26/30/8 24/29/8
f 6/7/8 25/9/8 23/20/8
f 25/9/4 27/8/4 15/45/12
f 30/46/8 31/44/8 34/50/9
f 35/47/8 30/46/8 36/40/13
f 32/51/8 36/40/13 37/52/9
f 14/38/19 33/53/21 37/52/9
f 27/8/17 13/43/15 31/44/14
f 22/39/20 15/45/16 35/47/18
f 14/38/19 22/39/20 32/51/20
f 29/35/9 36/40/13 34/50/9
